<svg xmlns="http://www.w3.org/2000/svg" width="600" height="220" viewBox="0 0 600 220">
            <style>
                @media (prefers-color-scheme: light) {
                    .text { fill: #24292f; }
                    .grid-line { stroke: #24292f; }
                    .matrix-border { stroke: #24292f; }
                }
                @media (prefers-color-scheme: dark) {
                    .text { fill: #c9d1d9; }
                    .grid-line { stroke: #c9d1d9; }
                    .matrix-border { stroke: #c9d1d9; }
                }
                .year-label { font-family: Arial; font-size: 12px; }
                .day-label { font-family: Arial; font-size: 12px; }
                .total-label { font-family: Arial; font-size: 12px; font-weight: bold; }
                .grand-total { font-family: Arial; font-size: 14px; font-weight: bold; }
                .star { font-family: Arial; font-size: 12px; }
                .silver { fill: #6b7280; }
                .gold { fill: #fbbf24; }
                .matrix-border { fill: none; stroke-width: 1; }
                .grid-line { stroke-width: 0.5; stroke-opacity: 0.1; }
                .text { font-family: Arial; }
            </style><rect x="39" y="59" width="522" height="82" class="matrix-border"/><line x1="40" y1="60" x2="40" y2="140" class="grid-line"/><line x1="60" y1="60" x2="60" y2="140" class="grid-line"/><line x1="80" y1="60" x2="80" y2="140" class="grid-line"/><line x1="100" y1="60" x2="100" y2="140" class="grid-line"/><line x1="120" y1="60" x2="120" y2="140" class="grid-line"/><line x1="140" y1="60" x2="140" y2="140" class="grid-line"/><line x1="160" y1="60" x2="160" y2="140" class="grid-line"/><line x1="180" y1="60" x2="180" y2="140" class="grid-line"/><line x1="200" y1="60" x2="200" y2="140" class="grid-line"/><line x1="220" y1="60" x2="220" y2="140" class="grid-line"/><line x1="240" y1="60" x2="240" y2="140" class="grid-line"/><line x1="260" y1="60" x2="260" y2="140" class="grid-line"/><line x1="280" y1="60" x2="280" y2="140" class="grid-line"/><line x1="300" y1="60" x2="300" y2="140" class="grid-line"/><line x1="320" y1="60" x2="320" y2="140" class="grid-line"/><line x1="340" y1="60" x2="340" y2="140" class="grid-line"/><line x1="360" y1="60" x2="360" y2="140" class="grid-line"/><line x1="380" y1="60" x2="380" y2="140" class="grid-line"/><line x1="400" y1="60" x2="400" y2="140" class="grid-line"/><line x1="420" y1="60" x2="420" y2="140" class="grid-line"/><line x1="440" y1="60" x2="440" y2="140" class="grid-line"/><line x1="460" y1="60" x2="460" y2="140" class="grid-line"/><line x1="480" y1="60" x2="480" y2="140" class="grid-line"/><line x1="500" y1="60" x2="500" y2="140" class="grid-line"/><line x1="520" y1="60" x2="520" y2="140" class="grid-line"/><line x1="540" y1="60" x2="540" y2="140" class="grid-line"/><line x1="560" y1="60" x2="560" y2="140" class="grid-line"/><line x1="40" y1="60" x2="560" y2="60" class="grid-line"/><line x1="40" y1="80" x2="560" y2="80" class="grid-line"/><line x1="40" y1="100" x2="560" y2="100" class="grid-line"/><line x1="40" y1="120" x2="560" y2="120" class="grid-line"/><line x1="40" y1="140" x2="560" y2="140" class="grid-line"/><text x="30" y="75" class="year-label text" text-anchor="end">2018</text><text x="30" y="95" class="year-label text" text-anchor="end">2019</text><text x="30" y="115" class="year-label text" text-anchor="end">2023</text><text x="30" y="135" class="year-label text" text-anchor="end">2024</text><text x="50" y="55" class="day-label text" text-anchor="middle">1</text><text x="70" y="55" class="day-label text" text-anchor="middle">2</text><text x="90" y="55" class="day-label text" text-anchor="middle">3</text><text x="110" y="55" class="day-label text" text-anchor="middle">4</text><text x="130" y="55" class="day-label text" text-anchor="middle">5</text><text x="150" y="55" class="day-label text" text-anchor="middle">6</text><text x="170" y="55" class="day-label text" text-anchor="middle">7</text><text x="190" y="55" class="day-label text" text-anchor="middle">8</text><text x="210" y="55" class="day-label text" text-anchor="middle">9</text><text x="230" y="38" class="day-label text" text-anchor="middle">1</text>
                    <text x="230" y="55" class="day-label text" text-anchor="middle">0</text><text x="250" y="38" class="day-label text" text-anchor="middle">1</text>
                    <text x="250" y="55" class="day-label text" text-anchor="middle">1</text><text x="270" y="38" class="day-label text" text-anchor="middle">1</text>
                    <text x="270" y="55" class="day-label text" text-anchor="middle">2</text><text x="290" y="38" class="day-label text" text-anchor="middle">1</text>
                    <text x="290" y="55" class="day-label text" text-anchor="middle">3</text><text x="310" y="38" class="day-label text" text-anchor="middle">1</text>
                    <text x="310" y="55" class="day-label text" text-anchor="middle">4</text><text x="330" y="38" class="day-label text" text-anchor="middle">1</text>
                    <text x="330" y="55" class="day-label text" text-anchor="middle">5</text><text x="350" y="38" class="day-label text" text-anchor="middle">1</text>
                    <text x="350" y="55" class="day-label text" text-anchor="middle">6</text><text x="370" y="38" class="day-label text" text-anchor="middle">1</text>
                    <text x="370" y="55" class="day-label text" text-anchor="middle">7</text><text x="390" y="38" class="day-label text" text-anchor="middle">1</text>
                    <text x="390" y="55" class="day-label text" text-anchor="middle">8</text><text x="410" y="38" class="day-label text" text-anchor="middle">1</text>
                    <text x="410" y="55" class="day-label text" text-anchor="middle">9</text><text x="430" y="38" class="day-label text" text-anchor="middle">2</text>
                    <text x="430" y="55" class="day-label text" text-anchor="middle">0</text><text x="450" y="38" class="day-label text" text-anchor="middle">2</text>
                    <text x="450" y="55" class="day-label text" text-anchor="middle">1</text><text x="470" y="38" class="day-label text" text-anchor="middle">2</text>
                    <text x="470" y="55" class="day-label text" text-anchor="middle">2</text><text x="490" y="38" class="day-label text" text-anchor="middle">2</text>
                    <text x="490" y="55" class="day-label text" text-anchor="middle">3</text><text x="510" y="38" class="day-label text" text-anchor="middle">2</text>
                    <text x="510" y="55" class="day-label text" text-anchor="middle">4</text><text x="530" y="38" class="day-label text" text-anchor="middle">2</text>
                    <text x="530" y="55" class="day-label text" text-anchor="middle">5</text><text x="50" y="74" class="star gold" text-anchor="middle">★</text><text x="70" y="74" class="star gold" text-anchor="middle">★</text><text x="90" y="74" class="star gold" text-anchor="middle">★</text><text x="110" y="74" class="star gold" text-anchor="middle">★</text><text x="130" y="74" class="star gold" text-anchor="middle">★</text><text x="150" y="74" class="star gold" text-anchor="middle">★</text><text x="170" y="74" class="star gold" text-anchor="middle">★</text><text x="190" y="74" class="star gold" text-anchor="middle">★</text><text x="210" y="74" class="star gold" text-anchor="middle">★</text><text x="230" y="74" class="star gold" text-anchor="middle">★</text><text x="250" y="74" class="star silver" text-anchor="middle">★</text><text x="270" y="74" class="star silver" text-anchor="middle">★</text><text x="290" y="74" class="star silver" text-anchor="middle">★</text><text x="310" y="74" class="star silver" text-anchor="middle">★</text><text x="330" y="74" class="star silver" text-anchor="middle">★</text><text x="350" y="74" class="star silver" text-anchor="middle">★</text><text x="370" y="74" class="star silver" text-anchor="middle">★</text><text x="390" y="74" class="star gold" text-anchor="middle">★</text><text x="410" y="74" class="star gold" text-anchor="middle">★</text><text x="430" y="74" class="star gold" text-anchor="middle">★</text><text x="450" y="74" class="star gold" text-anchor="middle">★</text><text x="470" y="74" class="star gold" text-anchor="middle">★</text><text x="490" y="74" class="star gold" text-anchor="middle">★</text><text x="510" y="74" class="star gold" text-anchor="middle">★</text><text x="530" y="74" class="star silver" text-anchor="middle">★</text><text x="550" y="74" class="total-label text" text-anchor="middle">42</text><text x="50" y="94" class="star gold" text-anchor="middle">★</text><text x="70" y="94" class="star gold" text-anchor="middle">★</text><text x="550" y="94" class="total-label text" text-anchor="middle">4</text><text x="50" y="114" class="star gold" text-anchor="middle">★</text><text x="70" y="114" class="star gold" text-anchor="middle">★</text><text x="90" y="114" class="star gold" text-anchor="middle">★</text><text x="110" y="114" class="star gold" text-anchor="middle">★</text><text x="130" y="114" class="star gold" text-anchor="middle">★</text><text x="150" y="114" class="star gold" text-anchor="middle">★</text><text x="170" y="114" class="star gold" text-anchor="middle">★</text><text x="190" y="114" class="star gold" text-anchor="middle">★</text><text x="210" y="114" class="star gold" text-anchor="middle">★</text><text x="230" y="114" class="star gold" text-anchor="middle">★</text><text x="250" y="114" class="star gold" text-anchor="middle">★</text><text x="270" y="114" class="star gold" text-anchor="middle">★</text><text x="290" y="114" class="star gold" text-anchor="middle">★</text><text x="310" y="114" class="star gold" text-anchor="middle">★</text><text x="330" y="114" class="star gold" text-anchor="middle">★</text><text x="350" y="114" class="star gold" text-anchor="middle">★</text><text x="370" y="114" class="star gold" text-anchor="middle">★</text><text x="390" y="114" class="star gold" text-anchor="middle">★</text><text x="410" y="114" class="star gold" text-anchor="middle">★</text><text x="430" y="114" class="star silver" text-anchor="middle">★</text><text x="550" y="114" class="total-label text" text-anchor="middle">39</text><text x="50" y="134" class="star gold" text-anchor="middle">★</text><text x="70" y="134" class="star gold" text-anchor="middle">★</text><text x="90" y="134" class="star gold" text-anchor="middle">★</text><text x="110" y="134" class="star gold" text-anchor="middle">★</text><text x="130" y="134" class="star gold" text-anchor="middle">★</text><text x="150" y="134" class="star gold" text-anchor="middle">★</text><text x="170" y="134" class="star gold" text-anchor="middle">★</text><text x="550" y="134" class="total-label text" text-anchor="middle">14</text><text x="300" y="180" class="grand-total text" text-anchor="middle">Total stars: 99</text></svg>